Titulo: 
The Bad Intentions Aka Las Malas Intenciones

Country:
Peru, 2011

Language:
Spanish

No Subtitle

Director:
Rosario Garcia-Montero

Writer:
Rosario Garcia-Montero

Stars:
Fatima Buntinx, Katerina D'Onofrio, Melchor Gorrochategui

Synopsis:
The Bad Intentions tells the story of a period in the life of Cayetana, an eight years old girl growing up in Peru in the early 80's, when terrorist violence was starting to agitate the country. The story unfolds from the point of view of this intelligent child, but with a somewhat dark and distorted personality. Daughter of separated parents, Cayetana spends most of the time on her own and under the care of their employees. After returning from a long trip, the mother, Agnes, gives her some unexpected news: she is pregnant. With this news Cayetana's fragile world collapses. She locks herself in her room and solemnly declares that the day of birth of her brother will be the day of her own death. Only your imagination and the emergence of the national heroes of their textbooks - Olaya, Grau, Bolognesi - may save her from an increasingly alienated family environment in a country about to collapse.

Trivia:
The official submission of Peru to the Best Foreign Language Film of the 85th Academy Awards 2013. 


Media Info:

General
Complete name                            : The.Bad.Intentions.[Las.Malas.Intenciones].2011.DVDRip.XviD.HORiZON-ArtSubs
Format                                   : AVI
Format/Info                              : Audio Video Interleave
File size                                : 701 MiB
Duration                                 : 1h 52mn
Overall bit rate mode                    : Variable
Overall bit rate                         : 874 Kbps

Video
ID                                       : 0
Format                                   : MPEG-4 Visual
Format profile                           : Advanced Simple@L5
Format settings, BVOP                    : 1
Format settings, QPel                    : No
Format settings, GMC                     : No warppoints
Format settings, Matrix                  : Custom
Codec ID                                 : XVID
Codec ID/Hint                            : XviD
Duration                                 : 1h 52mn
Bit rate                                 : 748 Kbps
Width                                    : 720 pixels
Height                                   : 304 pixels
Display aspect ratio                     : 2.35:1
Frame rate                               : 29.970 fps
Color space                              : YUV
Chroma subsampling                       : 4:2:0
Bit depth                                : 8 bits
Scan type                                : Progressive
Compression mode                         : Lossy
Bits/(Pixel*Frame)                       : 0.114
Stream size                              : 600 MiB (86%)
Writing library                          : XviD 1.2.1 (UTC 2008-12-04)

Audio
ID                                       : 1
Format                                   : MPEG Audio
Format version                           : Version 1
Format profile                           : Layer 3
Mode                                     : Joint stereo
Mode extension                           : MS Stereo
Codec ID                                 : 55
Codec ID/Hint                            : MP3
Duration                                 : 1h 51mn
Bit rate mode                            : Variable
Bit rate                                 : 112 Kbps
Nominal bit rate                         : 128 Kbps
Channel(s)                               : 2 channels
Sampling rate                            : 48.0 KHz
Compression mode                         : Lossy
Stream size                              : 89.5 MiB (13%)
Alignment                                : Aligned on interleaves
Interleave, duration                     : 24 ms (0.72 video frame)
Interleave, preload duration             : 164 ms
Writing library                          : LAME3.98r
Encoding settings                        : -m j -V 4 -q 2 -lowpass 17 --abr 128

